<svg width="276" height="81" viewBox="0 0 276 81" fill="none" xmlns="http://www.w3.org/2000/svg">
<path d="M25.3687 65.9091L25.3203 63.293L28.9998 78.4364L28.9514 81.0022L25.3687 65.9091Z" fill="#FFC25B"/>
<path d="M35.3438 51.5703V53.5324L28.9531 80.9013L29.0015 78.4361L35.3438 51.5703Z" fill="#E19E2D"/>
<path d="M25.3203 63.2926L35.342 51.5703L28.9998 78.4361L25.3203 63.2926Z" fill="#F9B749"/>
<path d="M24.8865 60.874L56.3071 24.4492V25.0026L24.4023 62.2826L24.8865 60.874Z" fill="#C78515"/>
<path d="M20.7695 47.2901L20.8664 45.7305L24.8847 60.8739L24.4006 62.2826L20.7695 47.2901Z" fill="#FFC25B"/>
<path d="M20.8672 45.7305L56.3062 24.4492L24.8855 60.874L20.8672 45.7305Z" fill="#FBAB23"/>
<path d="M18.9297 44.4726L25.9013 40.2969V41.1018L18.9297 45.2273V44.4726Z" fill="#E19E2D"/>
<path d="M0 25.5564V24.9023L18.9299 44.4731V45.2277L0 25.5564Z" fill="#FFC25B"/>
<path d="M18.9299 44.4731L0 24.9023L25.9015 40.2973L18.9299 44.4731Z" fill="#F2BE64"/>
<path d="M28.0164 14.1484L38.7916 20.6132L38.7916 33.5427L28.0164 40.0075L17.2412 33.5427L17.2412 20.6132L28.0164 14.1484Z" fill="#2B5270"/>
<ellipse cx="27.9526" cy="27.011" rx="7.07371" ry="7.3508" fill="white"/>
<path fill-rule="evenodd" clip-rule="evenodd" d="M54.9205 20.1194L27.3059 2.16406L0.96875 20.0746L16.4659 26.3151V19.9882L27.9521 13.0968L39.4384 19.9882V26.0467L54.9205 20.1194Z" fill="#2B5270"/>
<path d="M27.2578 0L54.9022 18.1117V20.1242L27.3062 2.16335L27.2578 0Z" fill="#1F4867"/>
<path d="M27.2575 0L0.96875 17.9105V20.0739L27.3059 2.16335L27.2575 0Z" fill="#376080"/>
<path d="M71.48 15.6778C70.7018 15.4573 70.1359 15.2 69.7822 14.9059C69.4639 14.6119 69.3047 14.1708 69.3047 13.5827C69.3047 12.4433 69.8352 11.8736 70.8964 11.8736H83.6829C87.892 11.8736 91.1638 12.9395 93.4982 15.0713C95.8327 17.2032 96.9999 19.9783 96.9999 23.3966C96.9999 27.2928 95.7266 30.27 93.1799 32.3284C90.6686 34.3867 87.0961 35.4159 82.4626 35.4159H80.6056C79.7214 35.4159 79.2792 34.644 79.2792 33.1003C79.2792 31.5565 79.6683 30.7846 80.4465 30.7846H81.8259C84.4787 30.7846 86.5302 30.1781 87.9804 28.9652C89.4306 27.7522 90.1557 25.8777 90.1557 23.3415C90.1911 21.1729 89.519 19.4821 88.1396 18.2691C86.7601 17.0194 85.2215 16.3946 83.5237 16.3946H80.977C79.5268 16.3946 78.8017 17.1113 78.8017 18.5448V52.5075H72.435V18.6551C72.435 17.4789 72.3289 16.707 72.1167 16.3394C71.9044 15.9719 71.6922 15.7513 71.48 15.6778Z" fill="#2B5270"/>
<path d="M106.444 52.5075H99.8119V17.387C99.8119 16.2475 99.7235 15.494 99.5466 15.1265C99.4051 14.7222 99.1929 14.4649 98.9099 14.3546C98.344 14.1341 97.8842 13.9135 97.5305 13.693C97.2122 13.4357 97.053 12.9762 97.053 12.3146C97.053 11.1752 97.8135 10.6055 99.3344 10.6055H104.162C105.683 10.6055 106.444 11.2119 106.444 12.4249V52.5075Z" fill="#2B5270"/>
<path d="M126.34 50.5778C125.88 50.9454 125.067 51.4232 123.899 52.0113C122.732 52.5994 121.087 52.8935 118.965 52.8935C116.454 52.8935 114.385 52.14 112.758 50.633C111.131 49.0892 110.317 47.1228 110.317 44.7336C110.317 41.4991 111.696 38.9077 114.455 36.9597C117.25 35.0116 120.628 34.0375 124.589 34.0375H126.287V32.8797C126.287 31.1889 125.827 29.8657 124.907 28.9101C123.988 27.9176 122.891 27.4214 121.618 27.4214C120.486 27.4214 119.513 27.7339 118.7 28.3587C117.922 28.9836 117.533 30.1965 117.533 31.9976H110.635C110.635 29.0938 111.643 26.8517 113.66 25.2712C115.676 23.6907 118.382 22.9004 121.777 22.9004C125.385 22.9004 128.126 23.8377 130.001 25.7123C131.911 27.5501 132.866 30.0311 132.866 33.1554V52.5075H126.34V50.5778ZM126.287 38.724C123.422 38.6504 121.14 39.1099 119.443 40.1023C117.745 41.0947 116.896 42.4547 116.896 44.1823C116.896 45.6525 117.232 46.6633 117.904 47.2146C118.576 47.7292 119.337 47.9865 120.185 47.9865C121.671 47.9865 123.05 47.4168 124.324 46.2774C125.632 45.1379 126.287 43.7596 126.287 42.1423V38.724Z" fill="#2B5270"/>
<path d="M157.749 50.7984C156.9 51.46 155.68 52.0113 154.088 52.4524C152.532 52.8567 150.657 53.0037 148.464 52.8935C144.75 52.6729 141.62 51.1843 139.073 48.4276C136.527 45.6341 135.253 41.8115 135.253 36.9597C135.253 32.6959 136.403 29.296 138.702 26.7598C141.001 24.1869 144.167 22.9004 148.199 22.9004C151.453 22.9004 154.053 23.7274 155.998 25.3815C157.979 26.9987 159.04 29.1857 159.182 31.9424H152.443C152.443 30.3252 152.037 29.1673 151.223 28.469C150.41 27.7706 149.313 27.4214 147.934 27.4214C146.519 27.4214 145.192 28.2484 143.954 29.9025C142.717 31.5197 142.098 33.8721 142.098 36.9597C142.098 40.3412 142.84 43.0428 144.326 45.0644C145.811 47.086 147.686 48.1887 149.95 48.3725C150.728 48.446 151.559 48.4276 152.443 48.3173C153.328 48.1703 154.212 47.8763 155.096 47.4352C156.016 46.9573 156.759 46.7919 157.325 46.939C157.926 47.086 158.368 47.4168 158.651 47.9314C158.828 48.446 158.828 48.9789 158.651 49.5303C158.51 50.0449 158.209 50.4676 157.749 50.7984Z" fill="#2B5270"/>
<path d="M167.724 39.3304C167.865 41.5358 168.643 43.5574 170.058 45.3952C171.473 47.1963 173.312 48.1887 175.576 48.3725C176.354 48.446 177.185 48.4276 178.07 48.3173C178.954 48.1703 179.82 47.8763 180.669 47.4352C181.73 46.9206 182.526 46.7736 183.057 46.9941C183.623 47.1779 184.047 47.5638 184.33 48.1519C184.472 48.6298 184.454 49.1443 184.277 49.6957C184.136 50.2103 183.817 50.633 183.322 50.9638C182.367 51.5519 181.076 52.0481 179.449 52.4524C177.857 52.8567 176.071 53.0037 174.09 52.8935C170.376 52.6362 167.246 51.1292 164.699 48.3725C162.153 45.6157 160.879 41.8115 160.879 36.9597C160.879 32.6224 162.029 29.2041 164.328 26.7047C166.627 24.1685 169.757 22.9004 173.719 22.9004C177.115 22.9004 179.873 24.0582 181.996 26.3739C184.118 28.6895 185.179 32.2181 185.179 36.9597V39.3304H167.724ZM167.724 34.6992H178.547C178.547 32.2365 178.016 30.4171 176.955 29.2409C175.93 28.0279 174.798 27.4214 173.56 27.4214C172.145 27.4214 170.836 28.1014 169.634 29.4614C168.466 30.8214 167.83 32.5673 167.724 34.6992Z" fill="#2B5270"/>
<path d="M209.001 50.7984C208.152 51.46 206.932 52.0113 205.34 52.4524C203.784 52.8567 201.909 53.0037 199.716 52.8935C196.002 52.6729 192.872 51.1843 190.325 48.4276C187.779 45.6341 186.505 41.8115 186.505 36.9597C186.505 32.6959 187.655 29.296 189.954 26.7598C192.253 24.1869 195.419 22.9004 199.451 22.9004C202.705 22.9004 205.305 23.7274 207.25 25.3815C209.231 26.9987 210.292 29.1857 210.434 31.9424H203.696C203.696 30.3252 203.289 29.1673 202.475 28.469C201.662 27.7706 200.565 27.4214 199.186 27.4214C197.771 27.4214 196.445 28.2484 195.207 29.9025C193.969 31.5197 193.35 33.8721 193.35 36.9597C193.35 40.3412 194.092 43.0428 195.578 45.0644C197.064 47.086 198.938 48.1887 201.202 48.3725C201.98 48.446 202.811 48.4276 203.696 48.3173C204.58 48.1703 205.464 47.8763 206.348 47.4352C207.268 46.9573 208.011 46.7919 208.577 46.939C209.178 47.086 209.62 47.4168 209.903 47.9314C210.08 48.446 210.08 48.9789 209.903 49.5303C209.762 50.0449 209.461 50.4676 209.001 50.7984Z" fill="#FBAB23"/>
<path d="M212.025 37.9521C212.025 33.5413 213.122 29.9392 215.315 27.1458C217.543 24.3155 220.762 22.9004 224.971 22.9004C229.216 22.9004 232.452 24.3155 234.68 27.1458C236.909 29.9392 238.023 33.5413 238.023 37.9521C238.023 42.3261 236.909 45.9098 234.68 48.7033C232.452 51.4967 229.216 52.8935 224.971 52.8935C220.762 52.8935 217.543 51.4967 215.315 48.7033C213.122 45.9098 212.025 42.3261 212.025 37.9521ZM218.976 37.9521C218.976 41.5542 219.595 44.2006 220.833 45.8914C222.071 47.5454 223.45 48.3725 224.971 48.3725C226.527 48.3725 227.924 47.5454 229.162 45.8914C230.436 44.2006 231.072 41.5542 231.072 37.9521C231.072 34.3132 230.436 31.6484 229.162 29.9576C227.924 28.2668 226.527 27.4214 224.971 27.4214C223.45 27.4214 222.071 28.2668 220.833 29.9576C219.595 31.6484 218.976 34.3132 218.976 37.9521Z" fill="#FBAB23"/>
<path d="M247.785 52.5075H241.259V30.3987C241.259 29.2592 241.171 28.4874 240.994 28.083C240.817 27.6787 240.623 27.4214 240.41 27.3112C239.738 27.1641 239.261 26.962 238.978 26.7047C238.695 26.4474 238.553 26.0063 238.553 25.3815C238.553 24.2053 239.296 23.6172 240.782 23.6172H245.504C247.025 23.6172 247.785 24.2788 247.785 25.602V26.0431C247.927 25.896 248.068 25.7306 248.21 25.5469C249.589 24.0399 251.464 23.2496 253.834 23.1761C256.451 23.1761 258.396 24.095 259.67 25.9328C259.988 26.3739 260.271 26.8885 260.519 27.4766C260.837 26.8885 261.226 26.3371 261.686 25.8225C263.242 24.0582 265.188 23.1761 267.522 23.1761C270.21 23.1761 272.173 24.1134 273.411 25.9879C274.685 27.8257 275.321 30.7479 275.321 34.7543V52.5075H268.795V34.9197C268.795 32.3835 268.565 30.6376 268.106 29.6819C267.681 28.7263 267.08 28.2484 266.302 28.2484C265.276 28.2484 264.073 29.2592 262.694 31.2808C262.199 31.9424 261.827 32.6959 261.58 33.5413V52.5075H255.054V34.9197C255.054 32.3468 254.824 30.6008 254.364 29.6819C253.94 28.7263 253.374 28.2484 252.666 28.2484C251.641 28.2852 250.403 29.296 248.952 31.2808C248.457 31.9057 248.068 32.6408 247.785 33.4862V52.5075Z" fill="#FBAB23"/>
<path d="M77.5054 64.7448C77.5054 65.0391 77.4359 65.3593 77.2967 65.7001C77.1576 66.0409 76.934 66.3817 76.6358 66.7122C76.3377 67.0427 75.9501 67.3112 75.483 67.5178C75.0159 67.7243 74.4742 67.8224 73.8531 67.8224C73.381 67.8224 72.9536 67.776 72.571 67.683C72.1834 67.5952 71.8356 67.4506 71.5225 67.2492C71.2094 67.053 70.9212 66.8 70.6578 66.4747C70.4193 66.1855 70.2206 65.855 70.0566 65.4987C69.8876 65.1372 69.7634 64.7499 69.6789 64.3471C69.5944 63.9392 69.5547 63.5054 69.5547 63.0407C69.5547 62.2919 69.659 61.6258 69.8677 61.0371C70.0765 60.4484 70.3746 59.9424 70.7672 59.5241C71.1548 59.1058 71.6119 58.7857 72.1387 58.5688C72.6604 58.3467 73.222 58.2383 73.8133 58.2383C74.5388 58.2383 75.1798 58.388 75.7414 58.6875C76.3029 58.987 76.7352 59.3537 77.0383 59.7978C77.3365 60.2367 77.4905 60.655 77.4905 61.0423C77.4905 61.2591 77.416 61.4502 77.2719 61.6103C77.1278 61.7755 76.9489 61.8582 76.7402 61.8582C76.5116 61.8582 76.3377 61.8014 76.2184 61.6878C76.1041 61.5741 75.9749 61.3779 75.8308 61.0991C75.5923 60.6395 75.319 60.2987 75.0009 60.0715C74.6829 59.8442 74.2904 59.7306 73.8232 59.7306C73.0779 59.7306 72.4865 60.025 72.0492 60.6085C71.607 61.1972 71.3883 62.0286 71.3883 63.1078C71.3883 63.8256 71.4877 64.4246 71.6815 64.9048C71.8753 65.3851 72.1536 65.7414 72.5114 65.9789C72.8692 66.2165 73.2866 66.3352 73.7686 66.3352C74.2854 66.3352 74.7276 66.201 75.0854 65.9325C75.4432 65.6639 75.7165 65.2715 75.9004 64.7499C75.9749 64.5072 76.0743 64.3058 76.1836 64.1509C76.2979 63.996 76.4768 63.9237 76.7302 63.9237C76.9439 63.9237 77.1278 64.0012 77.2818 64.1561C77.4359 64.311 77.5154 64.5072 77.5154 64.7396L77.5054 64.7448Z" fill="#231F20"/>
<path d="M85.2333 64.3122C85.2333 64.8286 85.1538 65.2985 84.9998 65.7374C84.8457 66.1712 84.6221 66.543 84.3289 66.8528C84.0358 67.1678 83.6879 67.4054 83.2804 67.5706C82.873 67.7359 82.4158 67.8185 81.9089 67.8185C81.4021 67.8185 80.9548 67.7359 80.5523 67.5706C80.1498 67.4002 79.802 67.1575 79.5088 66.8425C79.2156 66.5275 78.992 66.1609 78.838 65.7271C78.6839 65.2985 78.6094 64.8286 78.6094 64.3071C78.6094 63.7855 78.6839 63.3053 78.8429 62.8715C78.997 62.4377 79.2206 62.0659 79.5088 61.7613C79.797 61.4566 80.1449 61.2139 80.5573 61.0487C80.9698 60.8834 81.422 60.8008 81.9139 60.8008C82.4059 60.8008 82.873 60.8834 83.2854 61.0538C83.6929 61.2242 84.0457 61.4618 84.3389 61.7716C84.6321 62.0866 84.8557 62.4532 85.0048 62.887C85.1588 63.3156 85.2333 63.7907 85.2333 64.3071V64.3122ZM83.5637 64.3122C83.5637 63.6099 83.4146 63.0574 83.1165 62.6701C82.8183 62.2828 82.4158 62.0814 81.9139 62.0814C81.5909 62.0814 81.3027 62.1692 81.0542 62.3448C80.8058 62.5204 80.6169 62.7785 80.4828 63.1194C80.3486 63.4602 80.279 63.8578 80.279 64.3174C80.279 64.777 80.3436 65.1643 80.4778 65.4999C80.612 65.8356 80.8008 66.0938 81.0443 66.2745C81.2878 66.4501 81.581 66.543 81.9139 66.543C82.4158 66.543 82.8183 66.3468 83.1165 65.9543C83.4146 65.5619 83.5637 65.0145 83.5637 64.3174V64.3122Z" fill="#231F20"/>
<path d="M88.0543 61.7561V61.9627C88.3475 61.5599 88.6655 61.2655 89.0134 61.0796C89.3612 60.8937 89.7587 60.8008 90.2109 60.8008C90.6631 60.8008 91.0408 60.8989 91.3837 61.0951C91.7266 61.2913 91.985 61.5754 92.1589 61.9368C92.2682 62.1485 92.3378 62.3758 92.3726 62.6185C92.4024 62.8663 92.4222 63.1762 92.4222 63.5531V66.7651C92.4222 67.111 92.3477 67.3744 92.1937 67.55C92.0396 67.7255 91.8408 67.8133 91.5974 67.8133C91.3539 67.8133 91.1501 67.7255 90.9961 67.5448C90.842 67.3641 90.7675 67.1059 90.7675 66.7702V63.8888C90.7675 63.3207 90.693 62.887 90.5389 62.5823C90.3849 62.2776 90.0817 62.1331 89.6295 62.1331C89.3364 62.1331 89.063 62.2208 88.8196 62.4067C88.5761 62.5926 88.3972 62.8457 88.2829 63.1607C88.2034 63.4189 88.1636 63.8991 88.1636 64.6014V66.7651C88.1636 67.1162 88.0841 67.3744 87.9301 67.55C87.776 67.7255 87.5723 67.8133 87.3238 67.8133C87.0754 67.8133 86.8865 67.7255 86.7325 67.5448C86.5784 67.3641 86.5039 67.1059 86.5039 66.7702V61.7819C86.5039 61.4514 86.5735 61.2087 86.7076 61.0435C86.8468 60.8834 87.0356 60.8008 87.2741 60.8008C87.4182 60.8008 87.5524 60.8318 87.6717 60.9041C87.7909 60.9764 87.8853 61.0848 87.9549 61.2242C88.0245 61.3688 88.0642 61.5444 88.0642 61.7509L88.0543 61.7561Z" fill="#231F20"/>
<path d="M95.5699 61.7561V61.9627C95.8631 61.5599 96.1811 61.2655 96.529 61.0796C96.8768 60.8937 97.2744 60.8008 97.7266 60.8008C98.1788 60.8008 98.5564 60.8989 98.8993 61.0951C99.2422 61.2913 99.5006 61.5754 99.6745 61.9368C99.7838 62.1485 99.8534 62.3758 99.8882 62.6185C99.918 62.8663 99.9379 63.1762 99.9379 63.5531V66.7651C99.9379 67.111 99.8633 67.3744 99.7093 67.55C99.5552 67.7255 99.3565 67.8133 99.113 67.8133C98.8695 67.8133 98.6657 67.7255 98.5117 67.5448C98.3577 67.3641 98.2831 67.1059 98.2831 66.7702V63.8888C98.2831 63.3207 98.2086 62.887 98.0545 62.5823C97.9005 62.2776 97.5974 62.1331 97.1452 62.1331C96.852 62.1331 96.5787 62.2208 96.3352 62.4067C96.0917 62.5926 95.9128 62.8457 95.7985 63.1607C95.719 63.4189 95.6792 63.8991 95.6792 64.6014V66.7651C95.6792 67.1162 95.5997 67.3744 95.4457 67.55C95.2916 67.7255 95.0879 67.8133 94.8394 67.8133C94.591 67.8133 94.4022 67.7255 94.2481 67.5448C94.0941 67.3641 94.0195 67.1059 94.0195 66.7702V61.7819C94.0195 61.4514 94.0891 61.2087 94.2233 61.0435C94.3624 60.8834 94.5512 60.8008 94.7898 60.8008C94.9339 60.8008 95.068 60.8318 95.1873 60.9041C95.3066 60.9764 95.401 61.0848 95.4705 61.2242C95.5401 61.3688 95.5799 61.5444 95.5799 61.7509L95.5699 61.7561Z" fill="#231F20"/>
<path d="M106.241 64.7408H102.991C102.991 65.1333 103.071 65.4792 103.22 65.7788C103.369 66.0783 103.563 66.3003 103.811 66.4552C104.055 66.605 104.328 66.6824 104.621 66.6824C104.82 66.6824 105.004 66.6566 105.168 66.6101C105.332 66.5637 105.491 66.4862 105.645 66.3829C105.799 66.2797 105.938 66.1712 106.072 66.0473C106.201 65.9285 106.37 65.7684 106.579 65.567C106.664 65.4896 106.783 65.4534 106.942 65.4534C107.111 65.4534 107.25 65.4999 107.354 65.598C107.459 65.6961 107.513 65.8304 107.513 66.0111C107.513 66.166 107.454 66.3468 107.339 66.5585C107.22 66.7702 107.046 66.9664 106.808 67.1627C106.569 67.3589 106.271 67.5138 105.913 67.6429C105.555 67.7668 105.143 67.8288 104.676 67.8288C103.608 67.8288 102.778 67.5138 102.186 66.8838C101.595 66.2538 101.297 65.3915 101.297 64.3071C101.297 63.7958 101.371 63.3208 101.516 62.887C101.66 62.4532 101.873 62.0763 102.157 61.7664C102.435 61.4514 102.783 61.2139 103.19 61.0487C103.603 60.8834 104.055 60.8008 104.552 60.8008C105.203 60.8008 105.759 60.9454 106.221 61.2294C106.684 61.5134 107.036 61.8852 107.265 62.3345C107.498 62.7837 107.613 63.2433 107.613 63.7132C107.613 64.1521 107.493 64.431 107.255 64.5601C107.016 64.684 106.679 64.7511 106.246 64.7511L106.241 64.7408ZM102.991 63.7597H106.003C105.963 63.171 105.809 62.7321 105.546 62.4326C105.277 62.1382 104.929 61.9936 104.497 61.9936C104.065 61.9936 103.742 62.1434 103.478 62.4377C103.21 62.7372 103.051 63.1762 102.996 63.7545L102.991 63.7597Z" fill="#231F20"/>
<path d="M114.98 65.6883C114.98 65.9 114.916 66.1324 114.796 66.3803C114.672 66.623 114.483 66.8554 114.23 67.0774C113.977 67.2994 113.658 67.475 113.271 67.6093C112.883 67.7435 112.451 67.8107 111.969 67.8107C110.945 67.8107 110.14 67.5008 109.564 66.8812C108.987 66.2563 108.699 65.425 108.699 64.3767C108.699 63.6692 108.833 63.0444 109.097 62.497C109.36 61.9548 109.743 61.5314 110.24 61.2371C110.742 60.9427 111.333 60.793 112.029 60.793C112.461 60.793 112.853 60.8601 113.211 60.9892C113.569 61.1235 113.877 61.2887 114.126 61.4953C114.374 61.7018 114.568 61.9239 114.697 62.1562C114.826 62.3886 114.896 62.6055 114.896 62.812C114.896 63.0186 114.821 63.1942 114.672 63.3388C114.523 63.4782 114.344 63.5505 114.136 63.5505C113.996 63.5505 113.882 63.5143 113.793 63.4369C113.703 63.3646 113.599 63.2458 113.485 63.0806C113.281 62.7604 113.067 62.5177 112.849 62.3576C112.625 62.1975 112.347 62.1149 112.004 62.1149C111.512 62.1149 111.119 62.3111 110.816 62.7139C110.518 63.1115 110.364 63.6589 110.364 64.3509C110.364 64.671 110.404 64.9705 110.478 65.2442C110.553 65.5127 110.667 65.7451 110.811 65.9413C110.955 66.1324 111.134 66.277 111.343 66.3803C111.547 66.4784 111.775 66.53 112.024 66.53C112.357 66.53 112.64 66.4474 112.878 66.2873C113.117 66.1272 113.326 65.8845 113.509 65.5541C113.609 65.3578 113.718 65.2081 113.837 65.0945C113.957 64.986 114.096 64.9344 114.27 64.9344C114.473 64.9344 114.642 65.0118 114.772 65.1771C114.906 65.3372 114.975 65.5076 114.975 65.6883H114.98Z" fill="#231F20"/>
<path d="M116.506 60.9654H116.69V59.9275C116.69 59.6486 116.694 59.4317 116.709 59.2717C116.724 59.1167 116.764 58.9773 116.829 58.8637C116.893 58.7449 116.988 58.652 117.107 58.5745C117.226 58.5022 117.365 58.4609 117.514 58.4609C117.728 58.4609 117.917 58.5436 118.086 58.7088C118.2 58.8224 118.27 58.9515 118.3 59.1116C118.329 59.2665 118.344 59.4937 118.344 59.7829V60.9603H118.951C119.184 60.9603 119.363 61.0171 119.487 61.1358C119.611 61.2494 119.676 61.3992 119.676 61.5799C119.676 61.8123 119.587 61.9724 119.413 62.0653C119.234 62.1583 118.985 62.2047 118.652 62.2047H118.344V65.3805C118.344 65.649 118.354 65.8556 118.374 66.0054C118.389 66.1499 118.439 66.2687 118.518 66.3565C118.598 66.4443 118.727 66.4908 118.906 66.4908C119.005 66.4908 119.134 66.4753 119.303 66.4391C119.472 66.403 119.601 66.3875 119.691 66.3875C119.825 66.3875 119.944 66.4391 120.054 66.5527C120.163 66.6663 120.213 66.8006 120.213 66.9658C120.213 67.2447 120.069 67.4564 119.775 67.6062C119.482 67.7559 119.065 67.8282 118.513 67.8282C117.996 67.8282 117.599 67.7404 117.336 67.5597C117.067 67.3789 116.893 67.1311 116.809 66.8057C116.724 66.4856 116.685 66.057 116.685 65.5251V62.2099H116.466C116.227 62.2099 116.044 62.1479 115.919 62.0343C115.795 61.9207 115.73 61.7658 115.73 61.5851C115.73 61.4043 115.795 61.2546 115.929 61.141C116.063 61.0222 116.252 60.9654 116.506 60.9654Z" fill="#231F20"/>
<path d="M121.677 59.9972C121.443 59.9972 121.249 59.9197 121.08 59.7751C120.917 59.6254 120.832 59.4188 120.832 59.1503C120.832 58.9076 120.917 58.7062 121.085 58.5461C121.254 58.386 121.448 58.3086 121.672 58.3086C121.895 58.3086 122.079 58.3809 122.243 58.5255C122.407 58.6649 122.492 58.8766 122.492 59.1503C122.492 59.424 122.412 59.6254 122.248 59.7751C122.084 59.9249 121.895 60.0023 121.672 60.0023L121.677 59.9972ZM122.497 61.7839V66.7722C122.497 67.1182 122.417 67.3815 122.258 67.5571C122.099 67.7327 121.9 67.8204 121.657 67.8204C121.413 67.8204 121.215 67.7327 121.066 67.5519C120.912 67.3712 120.837 67.113 120.837 66.7773V61.8407C120.837 61.4999 120.912 61.2417 121.066 61.0713C121.22 60.8957 121.413 60.8131 121.657 60.8131C121.9 60.8131 122.104 60.8957 122.258 61.0713C122.417 61.2417 122.497 61.4844 122.497 61.789V61.7839Z" fill="#231F20"/>
<path d="M125.718 61.7561V61.9627C126.012 61.5599 126.33 61.2655 126.677 61.0796C127.025 60.8937 127.423 60.8008 127.875 60.8008C128.327 60.8008 128.705 60.8989 129.048 61.0951C129.391 61.2913 129.649 61.5754 129.823 61.9368C129.932 62.1485 130.002 62.3758 130.037 62.6185C130.066 62.8663 130.086 63.1762 130.086 63.5531V66.7651C130.086 67.111 130.012 67.3744 129.858 67.55C129.704 67.7255 129.505 67.8133 129.261 67.8133C129.018 67.8133 128.814 67.7255 128.66 67.5448C128.506 67.3641 128.432 67.1059 128.432 66.7702V63.8888C128.432 63.3207 128.357 62.887 128.203 62.5823C128.049 62.2776 127.746 62.1331 127.294 62.1331C127 62.1331 126.727 62.2208 126.484 62.4067C126.24 62.5926 126.061 62.8457 125.947 63.1607C125.867 63.4189 125.828 63.8991 125.828 64.6014V66.7651C125.828 67.1162 125.748 67.3744 125.594 67.55C125.44 67.7255 125.236 67.8133 124.988 67.8133C124.739 67.8133 124.551 67.7255 124.397 67.5448C124.243 67.3641 124.168 67.1059 124.168 66.7702V61.7819C124.168 61.4514 124.238 61.2087 124.372 61.0435C124.511 60.8834 124.7 60.8008 124.938 60.8008C125.082 60.8008 125.216 60.8318 125.336 60.9041C125.455 60.9764 125.549 61.0848 125.619 61.2242C125.689 61.3688 125.728 61.5444 125.728 61.7509L125.718 61.7561Z" fill="#231F20"/>
<path d="M137.845 62.0739V67.088C137.845 67.6612 137.785 68.1517 137.666 68.5649C137.547 68.978 137.358 69.3188 137.1 69.5873C136.841 69.8558 136.498 70.0572 136.081 70.1915C135.658 70.3206 135.137 70.3877 134.516 70.3877C133.944 70.3877 133.432 70.3051 132.98 70.1398C132.528 69.9746 132.185 69.7577 131.941 69.4944C131.698 69.231 131.579 68.9573 131.579 68.6836C131.579 68.4719 131.648 68.3015 131.787 68.1672C131.927 68.033 132.091 67.971 132.284 67.971C132.528 67.971 132.742 68.0846 132.925 68.3067C133.015 68.4203 133.104 68.5339 133.204 68.6475C133.298 68.7662 133.407 68.8644 133.522 68.947C133.636 69.0296 133.775 69.0916 133.939 69.1329C134.103 69.1742 134.287 69.1948 134.501 69.1948C134.933 69.1948 135.266 69.1329 135.504 69.0089C135.743 68.885 135.907 68.7094 136.001 68.4874C136.096 68.2654 136.15 68.0227 136.17 67.7696C136.185 67.5166 136.2 67.1086 136.205 66.5406C135.947 66.9124 135.653 67.1964 135.321 67.3875C134.988 67.5837 134.585 67.6818 134.123 67.6818C133.566 67.6818 133.079 67.5321 132.667 67.2377C132.25 66.9434 131.932 66.5303 131.708 65.9984C131.484 65.4665 131.375 64.852 131.375 64.1601C131.375 63.6437 131.445 63.1738 131.579 62.7555C131.713 62.3424 131.907 61.9861 132.16 61.6969C132.409 61.4129 132.702 61.196 133.03 61.0514C133.358 60.9068 133.72 60.8345 134.113 60.8345C134.585 60.8345 134.993 60.9275 135.335 61.1134C135.678 61.2993 136.001 61.5936 136.299 61.9964V61.764C136.299 61.4645 136.369 61.2322 136.513 61.0669C136.657 60.9068 136.836 60.8242 137.06 60.8242C137.378 60.8242 137.591 60.9327 137.701 61.1495C137.81 61.3664 137.86 61.6814 137.86 62.0894L137.845 62.0739ZM133.035 64.2582C133.035 64.9605 133.179 65.4872 133.477 65.8435C133.775 66.1998 134.153 66.3805 134.62 66.3805C134.893 66.3805 135.157 66.3031 135.4 66.1482C135.649 65.9933 135.847 65.7609 136.001 65.451C136.155 65.1412 136.235 64.7643 136.235 64.3202C136.235 63.6179 136.086 63.0653 135.788 62.678C135.49 62.2908 135.097 62.0894 134.61 62.0894C134.123 62.0894 133.755 62.2753 133.472 62.6522C133.184 63.024 133.045 63.5611 133.045 64.253L133.035 64.2582Z" fill="#231F20"/>
<path d="M146.683 58.2422C147.607 58.2422 148.402 58.4384 149.063 58.8257C149.729 59.2182 150.231 59.7707 150.569 60.4885C150.912 61.2062 151.081 62.0531 151.081 63.0239C151.081 63.7417 150.986 64.3924 150.797 64.9759C150.614 65.5646 150.33 66.0706 149.958 66.5044C149.585 66.933 149.128 67.2635 148.581 67.4907C148.035 67.7179 147.413 67.8315 146.713 67.8315C146.012 67.8315 145.391 67.7179 144.839 67.4804C144.288 67.248 143.826 66.9175 143.458 66.4889C143.09 66.0655 142.812 65.5542 142.623 64.9552C142.434 64.3562 142.34 63.7107 142.34 63.0136C142.34 62.3165 142.439 61.6503 142.633 61.0513C142.832 60.4575 143.115 59.9514 143.488 59.5332C143.86 59.12 144.318 58.7999 144.849 58.5778C145.386 58.3558 145.992 58.2473 146.673 58.2473L146.683 58.2422ZM149.252 63.0084C149.252 62.332 149.148 61.7433 148.934 61.2424C148.72 60.7467 148.422 60.3697 148.03 60.1167C147.637 59.8585 147.19 59.7294 146.683 59.7294C146.32 59.7294 145.987 59.8017 145.679 59.9411C145.371 60.0805 145.108 60.2871 144.889 60.5608C144.665 60.8293 144.492 61.1753 144.367 61.5935C144.243 62.0118 144.178 62.4869 144.178 63.0084C144.178 63.53 144.243 64.0154 144.367 64.4388C144.492 64.8623 144.675 65.2186 144.909 65.4974C145.142 65.7763 145.411 65.9828 145.714 66.1274C146.017 66.2668 146.35 66.334 146.708 66.334C147.17 66.334 147.592 66.2152 147.985 65.9725C148.372 65.7298 148.681 65.3632 148.909 64.8623C149.138 64.3614 149.252 63.7417 149.252 63.0084Z" fill="#231F20"/>
<path d="M154.052 61.7716V61.9781C154.365 61.5754 154.688 61.281 155.026 61.0951C155.364 60.9092 155.741 60.8163 156.169 60.8163C156.681 60.8163 157.153 60.9505 157.58 61.2242C158.007 61.4979 158.35 61.9007 158.599 62.4274C158.847 62.9541 158.971 63.5789 158.971 64.3019C158.971 64.8338 158.902 65.3192 158.758 65.7633C158.614 66.2074 158.415 66.5843 158.166 66.8838C157.913 67.1833 157.615 67.4157 157.272 67.5809C156.929 67.741 156.561 67.8236 156.169 67.8236C155.697 67.8236 155.294 67.7255 154.971 67.5293C154.648 67.3331 154.34 67.0387 154.052 66.6566V69.2489C154.052 70.008 153.783 70.3849 153.252 70.3849C152.939 70.3849 152.735 70.2868 152.631 70.0906C152.526 69.8944 152.477 69.6103 152.477 69.2334V61.7819C152.477 61.4514 152.546 61.2087 152.685 61.0435C152.824 60.8782 153.013 60.8008 153.252 60.8008C153.49 60.8008 153.679 60.8834 153.828 61.0487C153.977 61.2191 154.052 61.4566 154.052 61.7664V61.7716ZM157.307 64.2812C157.307 63.8268 157.237 63.4344 157.103 63.109C156.969 62.7785 156.785 62.5307 156.546 62.3551C156.308 62.1795 156.044 62.0917 155.756 62.0917C155.299 62.0917 154.911 62.2777 154.598 62.6546C154.285 63.0264 154.126 63.5841 154.126 64.3122C154.126 64.999 154.28 65.5361 154.593 65.913C154.907 66.2951 155.294 66.4862 155.756 66.4862C156.03 66.4862 156.288 66.4036 156.521 66.2383C156.755 66.0731 156.944 65.8252 157.088 65.4896C157.232 65.1539 157.302 64.7511 157.302 64.2812H157.307Z" fill="#231F20"/>
<path d="M161.837 61.7716V61.9781C162.15 61.5754 162.473 61.281 162.811 61.0951C163.149 60.9092 163.527 60.8163 163.954 60.8163C164.466 60.8163 164.938 60.9505 165.365 61.2242C165.792 61.4979 166.135 61.9007 166.384 62.4274C166.632 62.9541 166.756 63.5789 166.756 64.3019C166.756 64.8338 166.687 65.3192 166.543 65.7633C166.399 66.2074 166.2 66.5843 165.951 66.8838C165.698 67.1833 165.4 67.4157 165.057 67.5809C164.714 67.741 164.346 67.8236 163.954 67.8236C163.482 67.8236 163.079 67.7255 162.756 67.5293C162.433 67.3331 162.125 67.0387 161.837 66.6566V69.2489C161.837 70.008 161.569 70.3849 161.037 70.3849C160.724 70.3849 160.52 70.2868 160.416 70.0906C160.311 69.8944 160.262 69.6103 160.262 69.2334V61.7819C160.262 61.4514 160.331 61.2087 160.47 61.0435C160.61 60.8782 160.798 60.8008 161.037 60.8008C161.275 60.8008 161.464 60.8834 161.613 61.0487C161.762 61.2191 161.837 61.4566 161.837 61.7664V61.7716ZM165.097 64.2812C165.097 63.8268 165.027 63.4344 164.893 63.109C164.759 62.7785 164.575 62.5307 164.336 62.3551C164.098 62.1795 163.835 62.0917 163.546 62.0917C163.089 62.0917 162.702 62.2777 162.389 62.6546C162.075 63.0264 161.916 63.5841 161.916 64.3122C161.916 64.999 162.071 65.5361 162.384 65.913C162.697 66.2951 163.084 66.4862 163.546 66.4862C163.82 66.4862 164.078 66.4036 164.312 66.2383C164.545 66.0731 164.734 65.8252 164.878 65.4896C165.022 65.1539 165.092 64.7511 165.092 64.2812H165.097Z" fill="#231F20"/>
<path d="M174.311 64.3122C174.311 64.8286 174.232 65.2985 174.078 65.7374C173.924 66.1712 173.7 66.543 173.407 66.8528C173.114 67.1678 172.766 67.4054 172.359 67.5706C171.951 67.7359 171.494 67.8185 170.987 67.8185C170.48 67.8185 170.033 67.7359 169.63 67.5706C169.228 67.4002 168.88 67.1575 168.587 66.8425C168.294 66.5275 168.07 66.1609 167.916 65.7271C167.762 65.2985 167.688 64.8286 167.688 64.3071C167.688 63.7855 167.762 63.3053 167.921 62.8715C168.075 62.4377 168.299 62.0659 168.587 61.7613C168.875 61.4566 169.223 61.2139 169.635 61.0487C170.048 60.8834 170.5 60.8008 170.992 60.8008C171.484 60.8008 171.951 60.8834 172.364 61.0538C172.771 61.2242 173.124 61.4618 173.417 61.7716C173.71 62.0866 173.934 62.4532 174.083 62.887C174.237 63.3156 174.311 63.7907 174.311 64.3071V64.3122ZM172.647 64.3122C172.647 63.6099 172.498 63.0574 172.2 62.6701C171.901 62.2828 171.499 62.0814 170.997 62.0814C170.674 62.0814 170.386 62.1692 170.137 62.3448C169.889 62.5204 169.7 62.7785 169.566 63.1194C169.432 63.4602 169.362 63.8578 169.362 64.3174C169.362 64.777 169.427 65.1643 169.561 65.4999C169.695 65.8356 169.884 66.0938 170.127 66.2745C170.371 66.4501 170.664 66.543 170.997 66.543C171.499 66.543 171.901 66.3468 172.2 65.9543C172.498 65.5619 172.647 65.0145 172.647 64.3174V64.3122Z" fill="#231F20"/>
<path d="M177.269 65.3295V66.7702C177.269 67.1214 177.19 67.3796 177.031 67.5551C176.872 67.7307 176.673 67.8185 176.429 67.8185C176.186 67.8185 175.992 67.7307 175.838 67.5551C175.684 67.3796 175.609 67.1162 175.609 66.7702V61.9627C175.609 61.1881 175.878 60.8008 176.419 60.8008C176.698 60.8008 176.896 60.8886 177.016 61.0693C177.135 61.25 177.204 61.5186 177.219 61.8749C177.418 61.5186 177.622 61.25 177.831 61.0693C178.039 60.8886 178.318 60.8008 178.665 60.8008C179.013 60.8008 179.356 60.8886 179.684 61.0693C180.012 61.25 180.176 61.4927 180.176 61.7871C180.176 61.9988 180.107 62.1744 179.967 62.3086C179.828 62.4481 179.674 62.5152 179.515 62.5152C179.456 62.5152 179.306 62.4739 179.073 62.3964C178.839 62.319 178.636 62.2776 178.457 62.2776C178.213 62.2776 178.014 62.3448 177.86 62.4739C177.706 62.6081 177.587 62.8044 177.503 63.0677C177.418 63.3259 177.359 63.6409 177.324 63.9972C177.294 64.3587 177.274 64.7976 177.274 65.314L177.269 65.3295Z" fill="#231F20"/>
<path d="M181.326 60.9654H181.51V59.9275C181.51 59.6486 181.515 59.4317 181.53 59.2717C181.545 59.1167 181.584 58.9773 181.649 58.8637C181.714 58.7449 181.808 58.652 181.927 58.5745C182.047 58.5022 182.186 58.4609 182.335 58.4609C182.548 58.4609 182.737 58.5436 182.906 58.7088C183.02 58.8224 183.09 58.9515 183.12 59.1116C183.15 59.2665 183.165 59.4937 183.165 59.7829V60.9603H183.771C184.004 60.9603 184.183 61.0171 184.308 61.1358C184.432 61.2494 184.496 61.3992 184.496 61.5799C184.496 61.8123 184.407 61.9724 184.233 62.0653C184.054 62.1583 183.806 62.2047 183.473 62.2047H183.165V65.3805C183.165 65.649 183.175 65.8556 183.194 66.0054C183.209 66.1499 183.259 66.2687 183.339 66.3565C183.418 66.4443 183.547 66.4908 183.726 66.4908C183.825 66.4908 183.955 66.4753 184.124 66.4391C184.293 66.403 184.422 66.3875 184.511 66.3875C184.645 66.3875 184.765 66.4391 184.874 66.5527C184.983 66.6663 185.033 66.8006 185.033 66.9658C185.033 67.2447 184.889 67.4564 184.596 67.6062C184.303 67.7559 183.885 67.8282 183.334 67.8282C182.817 67.8282 182.419 67.7404 182.156 67.5597C181.887 67.3789 181.714 67.1311 181.629 66.8057C181.545 66.4856 181.505 66.057 181.505 65.5251V62.2099H181.286C181.048 62.2099 180.864 62.1479 180.74 62.0343C180.615 61.9207 180.551 61.7658 180.551 61.5851C180.551 61.4043 180.615 61.2546 180.75 61.141C180.884 61.0222 181.073 60.9654 181.326 60.9654Z" fill="#231F20"/>
<path d="M189.965 66.8541V66.6321C189.766 66.8902 189.557 67.1123 189.338 67.2879C189.12 67.4634 188.881 67.5977 188.623 67.6803C188.364 67.7681 188.066 67.8094 187.733 67.8094C187.331 67.8094 186.973 67.7268 186.65 67.5512C186.332 67.3808 186.084 67.1433 185.91 66.8386C185.701 66.472 185.602 65.9453 185.602 65.2585V61.8348C185.602 61.4888 185.676 61.2306 185.825 61.0602C185.974 60.8898 186.173 60.802 186.421 60.802C186.67 60.802 186.874 60.8847 187.028 61.0602C187.182 61.2306 187.256 61.4888 187.256 61.8296V64.5923C187.256 64.9951 187.291 65.3256 187.356 65.5993C187.42 65.873 187.54 66.0847 187.709 66.2396C187.877 66.3945 188.106 66.4668 188.394 66.4668C188.682 66.4668 188.941 66.3842 189.184 66.2086C189.433 66.0382 189.612 65.811 189.726 65.5321C189.82 65.2894 189.865 64.7524 189.865 63.9262V61.8245C189.865 61.4837 189.94 61.2255 190.094 61.0551C190.248 60.8795 190.447 60.7969 190.695 60.7969C190.943 60.7969 191.142 60.8795 191.291 61.0551C191.44 61.2255 191.515 61.4837 191.515 61.8296V66.8334C191.515 67.1639 191.44 67.4066 191.301 67.5719C191.157 67.732 190.973 67.8146 190.745 67.8146C190.516 67.8146 190.327 67.732 190.183 67.5564C190.034 67.386 189.96 67.1484 189.96 66.8386L189.965 66.8541Z" fill="#231F20"/>
<path d="M194.687 61.7561V61.9627C194.98 61.5599 195.298 61.2655 195.646 61.0796C195.994 60.8937 196.392 60.8008 196.844 60.8008C197.296 60.8008 197.674 60.8989 198.016 61.0951C198.359 61.2913 198.618 61.5754 198.792 61.9368C198.901 62.1485 198.971 62.3758 199.005 62.6185C199.035 62.8663 199.055 63.1762 199.055 63.5531V66.7651C199.055 67.111 198.981 67.3744 198.826 67.55C198.672 67.7255 198.474 67.8133 198.23 67.8133C197.987 67.8133 197.783 67.7255 197.629 67.5448C197.475 67.3641 197.4 67.1059 197.4 66.7702V63.8888C197.4 63.3207 197.326 62.887 197.172 62.5823C197.018 62.2776 196.715 62.1331 196.262 62.1331C195.969 62.1331 195.696 62.2208 195.452 62.4067C195.209 62.5926 195.03 62.8457 194.916 63.1607C194.836 63.4189 194.796 63.8991 194.796 64.6014V66.7651C194.796 67.1162 194.717 67.3744 194.563 67.55C194.409 67.7255 194.205 67.8133 193.957 67.8133C193.708 67.8133 193.519 67.7255 193.365 67.5448C193.211 67.3641 193.137 67.1059 193.137 66.7702V61.7819C193.137 61.4514 193.206 61.2087 193.34 61.0435C193.48 60.8834 193.668 60.8008 193.907 60.8008C194.051 60.8008 194.185 60.8318 194.304 60.9041C194.424 60.9764 194.518 61.0848 194.588 61.2242C194.657 61.3688 194.697 61.5444 194.697 61.7509L194.687 61.7561Z" fill="#231F20"/>
<path d="M201.544 59.9972C201.31 59.9972 201.117 59.9197 200.948 59.7751C200.784 59.6254 200.699 59.4188 200.699 59.1503C200.699 58.9076 200.784 58.7062 200.953 58.5461C201.122 58.386 201.315 58.3086 201.539 58.3086C201.763 58.3086 201.946 58.3809 202.11 58.5255C202.274 58.6649 202.359 58.8766 202.359 59.1503C202.359 59.424 202.279 59.6254 202.115 59.7751C201.951 59.9249 201.763 60.0023 201.539 60.0023L201.544 59.9972ZM202.364 61.7839V66.7722C202.364 67.1182 202.284 67.3815 202.125 67.5571C201.966 67.7327 201.768 67.8204 201.524 67.8204C201.281 67.8204 201.082 67.7327 200.933 67.5519C200.779 67.3712 200.704 67.113 200.704 66.7773V61.8407C200.704 61.4999 200.779 61.2417 200.933 61.0713C201.087 60.8957 201.281 60.8131 201.524 60.8131C201.768 60.8131 201.971 60.8957 202.125 61.0713C202.284 61.2417 202.364 61.4844 202.364 61.789V61.7839Z" fill="#231F20"/>
<path d="M204.174 60.9654H204.358V59.9275C204.358 59.6486 204.362 59.4317 204.377 59.2717C204.392 59.1167 204.432 58.9773 204.497 58.8637C204.561 58.7449 204.656 58.652 204.775 58.5745C204.894 58.5022 205.033 58.4609 205.182 58.4609C205.396 58.4609 205.585 58.5436 205.754 58.7088C205.868 58.8224 205.938 58.9515 205.968 59.1116C205.997 59.2665 206.012 59.4937 206.012 59.7829V60.9603H206.618C206.852 60.9603 207.031 61.0171 207.155 61.1358C207.279 61.2494 207.344 61.3992 207.344 61.5799C207.344 61.8123 207.255 61.9724 207.081 62.0653C206.902 62.1583 206.653 62.2047 206.32 62.2047H206.012V65.3805C206.012 65.649 206.022 65.8556 206.042 66.0054C206.057 66.1499 206.107 66.2687 206.186 66.3565C206.266 66.4443 206.395 66.4908 206.574 66.4908C206.673 66.4908 206.802 66.4753 206.971 66.4391C207.14 66.403 207.269 66.3875 207.359 66.3875C207.493 66.3875 207.612 66.4391 207.722 66.5527C207.831 66.6663 207.881 66.8006 207.881 66.9658C207.881 67.2447 207.737 67.4564 207.443 67.6062C207.15 67.7559 206.733 67.8282 206.181 67.8282C205.664 67.8282 205.267 67.7404 205.004 67.5597C204.735 67.3789 204.561 67.1311 204.477 66.8057C204.392 66.4856 204.353 66.057 204.353 65.5251V62.2099H204.134C203.895 62.2099 203.712 62.1479 203.587 62.0343C203.463 61.9207 203.398 61.7658 203.398 61.5851C203.398 61.4043 203.463 61.2546 203.597 61.141C203.731 61.0222 203.92 60.9654 204.174 60.9654Z" fill="#231F20"/>
<path d="M209.341 59.9972C209.107 59.9972 208.914 59.9197 208.745 59.7751C208.581 59.6254 208.496 59.4188 208.496 59.1503C208.496 58.9076 208.581 58.7062 208.75 58.5461C208.918 58.386 209.112 58.3086 209.336 58.3086C209.56 58.3086 209.743 58.3809 209.907 58.5255C210.071 58.6649 210.156 58.8766 210.156 59.1503C210.156 59.424 210.076 59.6254 209.912 59.7751C209.748 59.9249 209.56 60.0023 209.336 60.0023L209.341 59.9972ZM210.166 61.7839V66.7722C210.166 67.1182 210.086 67.3815 209.927 67.5571C209.768 67.7327 209.569 67.8204 209.326 67.8204C209.082 67.8204 208.884 67.7327 208.735 67.5519C208.581 67.3712 208.506 67.113 208.506 66.7773V61.8407C208.506 61.4999 208.581 61.2417 208.735 61.0713C208.889 60.8957 209.082 60.8131 209.326 60.8131C209.569 60.8131 209.773 60.8957 209.927 61.0713C210.086 61.2417 210.166 61.4844 210.166 61.789V61.7839Z" fill="#231F20"/>
<path d="M216.507 64.7408H213.257C213.257 65.1333 213.337 65.4792 213.486 65.7788C213.635 66.0783 213.828 66.3003 214.077 66.4552C214.32 66.605 214.594 66.6824 214.887 66.6824C215.086 66.6824 215.27 66.6566 215.434 66.6101C215.597 66.5637 215.757 66.4862 215.911 66.3829C216.065 66.2797 216.204 66.1712 216.338 66.0473C216.467 65.9285 216.636 65.7684 216.845 65.567C216.929 65.4896 217.049 65.4534 217.208 65.4534C217.376 65.4534 217.516 65.4999 217.62 65.598C217.724 65.6961 217.779 65.8304 217.779 66.0111C217.779 66.166 217.719 66.3468 217.605 66.5585C217.486 66.7702 217.312 66.9664 217.073 67.1627C216.835 67.3589 216.537 67.5138 216.179 67.6429C215.821 67.7668 215.409 67.8288 214.942 67.8288C213.873 67.8288 213.043 67.5138 212.452 66.8838C211.861 66.2538 211.562 65.3915 211.562 64.3071C211.562 63.7958 211.637 63.3208 211.781 62.887C211.925 62.4481 212.139 62.0763 212.422 61.7664C212.7 61.4514 213.048 61.2139 213.456 61.0487C213.868 60.8834 214.32 60.8008 214.817 60.8008C215.468 60.8008 216.025 60.9454 216.487 61.2294C216.949 61.5134 217.302 61.8852 217.531 62.3345C217.764 62.7837 217.878 63.2433 217.878 63.7132C217.878 64.1521 217.759 64.431 217.521 64.5601C217.282 64.684 216.944 64.7511 216.512 64.7511L216.507 64.7408ZM213.257 63.7597H216.268C216.229 63.171 216.075 62.7321 215.811 62.4326C215.543 62.1382 215.195 61.9936 214.763 61.9936C214.33 61.9936 214.007 62.1434 213.744 62.4377C213.476 62.7372 213.317 63.1762 213.262 63.7545L213.257 63.7597Z" fill="#231F20"/>
<path d="M224.636 65.5683C224.636 66.0434 224.527 66.4513 224.303 66.7921C224.08 67.1329 223.752 67.386 223.314 67.5615C222.877 67.7371 222.345 67.8249 221.724 67.8249C221.103 67.8249 220.616 67.732 220.189 67.5409C219.761 67.3498 219.448 67.1123 219.245 66.8283C219.041 66.5443 218.941 66.2551 218.941 65.9711C218.941 65.78 219.006 65.6199 219.135 65.4857C219.264 65.3514 219.428 65.2791 219.627 65.2791C219.801 65.2791 219.935 65.3256 220.03 65.4134C220.124 65.5012 220.214 65.6251 220.298 65.7852C220.467 66.095 220.676 66.3222 220.909 66.4771C221.148 66.632 221.471 66.7043 221.878 66.7043C222.211 66.7043 222.484 66.6269 222.698 66.472C222.912 66.3171 223.016 66.1415 223.016 65.9453C223.016 65.6406 222.907 65.4237 222.683 65.2791C222.46 65.1397 222.097 65.0106 221.59 64.8815C221.019 64.7317 220.551 64.582 220.194 64.4167C219.836 64.2515 219.548 64.0398 219.334 63.7713C219.12 63.5079 219.011 63.1826 219.011 62.7901C219.011 62.4442 219.11 62.1188 219.309 61.809C219.508 61.4992 219.801 61.2565 220.189 61.0706C220.576 60.8847 221.043 60.7969 221.59 60.7969C222.022 60.7969 222.405 60.8434 222.748 60.9363C223.091 61.0293 223.379 61.1532 223.608 61.3081C223.836 61.463 224.01 61.6386 224.129 61.8245C224.249 62.0156 224.308 62.1963 224.308 62.3822C224.308 62.5784 224.244 62.7385 224.119 62.8676C223.995 62.9967 223.811 63.0587 223.573 63.0587C223.404 63.0587 223.255 63.0122 223.14 62.9089C223.021 62.8056 222.882 62.6559 222.728 62.4545C222.604 62.2841 222.455 62.1498 222.286 62.0465C222.117 61.9484 221.883 61.8968 221.59 61.8968C221.297 61.8968 221.038 61.9639 220.84 62.093C220.641 62.2273 220.541 62.3925 220.541 62.5887C220.541 62.7695 220.616 62.9192 220.76 63.0328C220.904 63.1464 221.103 63.2445 221.351 63.322C221.6 63.3995 221.938 63.4924 222.375 63.6009C222.892 63.73 223.309 63.8849 223.637 64.0656C223.965 64.2515 224.209 64.4632 224.383 64.7059C224.552 64.9538 224.636 65.2378 224.636 65.5528V65.5683Z" fill="#231F20"/>
<path d="M230.216 60.3645C230.216 59.9721 230.315 59.6158 230.509 59.2956C230.708 58.9703 230.996 58.7121 231.378 58.5262C231.761 58.3351 232.208 58.2422 232.725 58.2422C233.242 58.2422 233.679 58.3403 234.052 58.5417C234.425 58.7379 234.703 59.0013 234.892 59.3163C235.076 59.6364 235.17 59.9721 235.17 60.3181C235.17 60.7931 235.021 61.2011 234.718 61.5522C234.415 61.9034 233.977 62.2597 233.391 62.6211C233.595 62.869 233.784 63.1014 233.958 63.3234C234.131 63.5455 234.3 63.7469 234.464 63.9379C234.628 64.129 234.772 64.2891 234.907 64.4233C234.966 64.3046 235.061 64.0825 235.19 63.7572C235.319 63.4319 235.438 63.1995 235.548 63.0549C235.657 62.9103 235.816 62.8432 236.02 62.8432C236.209 62.8432 236.378 62.9103 236.527 63.0549C236.671 63.1943 236.745 63.3699 236.745 63.5713C236.745 63.7572 236.681 64.0206 236.556 64.3614C236.432 64.697 236.248 65.074 236.01 65.4871C236.159 65.6214 236.397 65.8279 236.725 66.1016C237.053 66.3753 237.252 66.5612 237.327 66.6593C237.401 66.7574 237.441 66.8917 237.441 67.0518C237.441 67.2738 237.366 67.4545 237.212 67.6043C237.058 67.754 236.889 67.8263 236.705 67.8263C236.522 67.8263 236.328 67.7644 236.154 67.6404C235.975 67.5165 235.597 67.2015 235.016 66.7109C234.753 66.9691 234.479 67.1757 234.196 67.3409C233.913 67.501 233.61 67.6249 233.287 67.7076C232.964 67.785 232.606 67.8263 232.208 67.8263C231.701 67.8263 231.244 67.7489 230.842 67.5991C230.439 67.4442 230.101 67.2377 229.833 66.9743C229.565 66.7109 229.366 66.4218 229.237 66.1016C229.108 65.7866 229.043 65.4613 229.043 65.1308C229.043 64.8003 229.093 64.5266 229.187 64.2581C229.286 63.9947 229.421 63.7572 229.6 63.5455C229.778 63.3338 229.992 63.1324 230.25 62.9361C230.509 62.7451 230.807 62.5592 231.15 62.3784C230.847 61.986 230.613 61.6297 230.459 61.3199C230.305 61.01 230.226 60.6899 230.226 60.3594L230.216 60.3645ZM231.94 63.3906C231.528 63.6384 231.215 63.8915 231.011 64.1393C230.807 64.3872 230.703 64.6867 230.703 65.0224C230.703 65.2186 230.742 65.3993 230.817 65.58C230.892 65.7556 231.001 65.9209 231.145 66.0758C231.289 66.2255 231.458 66.3443 231.647 66.4218C231.836 66.5044 232.039 66.5405 232.248 66.5405C232.457 66.5405 232.656 66.5095 232.849 66.4424C233.043 66.3753 233.227 66.2772 233.401 66.1532C233.575 66.0293 233.754 65.8744 233.943 65.6885C233.58 65.3425 233.257 64.9965 232.969 64.6609C232.68 64.3252 232.338 63.8966 231.935 63.3906H231.94ZM232.561 61.6607C232.974 61.387 233.272 61.1546 233.461 60.9687C233.644 60.7828 233.739 60.5556 233.739 60.2871C233.739 60.0186 233.644 59.8068 233.461 59.6313C233.277 59.4557 233.043 59.3679 232.765 59.3679C232.487 59.3679 232.248 59.4557 232.064 59.6364C231.88 59.8172 231.781 60.0289 231.781 60.2768C231.781 60.4007 231.816 60.5401 231.885 60.6847C231.955 60.8293 232.044 60.9739 232.149 61.1133C232.253 61.2579 232.392 61.4386 232.561 61.6607Z" fill="#231F20"/>
<path d="M244.531 59.9371H242.558V66.6708C242.558 67.0581 242.474 67.3473 242.31 67.5332C242.146 67.7191 241.927 67.812 241.664 67.812C241.4 67.812 241.177 67.7191 241.008 67.528C240.839 67.337 240.754 67.053 240.754 66.6657V59.932H238.782C238.473 59.932 238.245 59.8597 238.091 59.7203C237.942 59.5808 237.867 59.3898 237.867 59.1626C237.867 58.9354 237.942 58.734 238.101 58.5945C238.26 58.4551 238.483 58.3828 238.782 58.3828H244.526C244.839 58.3828 245.073 58.4551 245.222 58.5997C245.376 58.7391 245.45 58.9302 245.45 59.1626C245.45 59.3949 245.376 59.5808 245.217 59.7203C245.063 59.8597 244.829 59.932 244.521 59.932L244.531 59.9371Z" fill="#231F20"/>
<path d="M249.994 66.8477C249.592 67.173 249.204 67.4157 248.831 67.5809C248.459 67.7462 248.036 67.8236 247.569 67.8236C247.142 67.8236 246.769 67.7359 246.446 67.5603C246.123 67.3847 245.875 67.1523 245.701 66.8477C245.527 66.5482 245.438 66.2228 245.438 65.8769C245.438 65.4018 245.582 64.999 245.87 64.6685C246.158 64.3329 246.551 64.1108 247.057 63.9972C247.162 63.9714 247.425 63.9146 247.843 63.8268C248.26 63.739 248.618 63.6564 248.916 63.5841C249.214 63.5118 249.537 63.424 249.885 63.3156C249.865 62.8612 249.776 62.5255 249.622 62.3138C249.468 62.1021 249.14 61.9936 248.653 61.9936C248.23 61.9936 247.912 62.0556 247.698 62.1795C247.485 62.3035 247.301 62.4842 247.152 62.7321C247.003 62.9799 246.893 63.14 246.829 63.2175C246.764 63.2949 246.63 63.3311 246.426 63.3311C246.238 63.3311 246.079 63.2691 245.944 63.1452C245.81 63.0212 245.741 62.8612 245.741 62.6701C245.741 62.3654 245.845 62.0711 246.049 61.7871C246.257 61.5031 246.58 61.2655 247.018 61.0796C247.455 60.8937 248.002 60.8008 248.658 60.8008C249.388 60.8008 249.959 60.8886 250.382 61.0693C250.799 61.2449 251.092 61.5289 251.266 61.9162C251.44 62.3035 251.525 62.8199 251.525 63.4602C251.525 63.8681 251.525 64.2089 251.525 64.4929C251.525 64.777 251.525 65.0868 251.515 65.4379C251.515 65.7581 251.565 66.0989 251.669 66.4552C251.773 66.8115 251.823 67.0336 251.823 67.1317C251.823 67.3073 251.743 67.4725 251.584 67.6171C251.425 67.7617 251.242 67.834 251.038 67.834C250.869 67.834 250.7 67.7514 250.536 67.5861C250.367 67.4157 250.193 67.1782 250.004 66.858L249.994 66.8477ZM249.885 64.3484C249.641 64.4361 249.289 64.5394 248.822 64.6427C248.354 64.746 248.036 64.8234 247.858 64.8699C247.679 64.9164 247.51 65.0093 247.346 65.1539C247.182 65.2933 247.102 65.4947 247.102 65.7478C247.102 66.0008 247.197 66.228 247.39 66.4139C247.579 66.5998 247.828 66.6928 248.136 66.6928C248.464 66.6928 248.767 66.6153 249.045 66.4655C249.323 66.3158 249.527 66.1247 249.656 65.8872C249.805 65.6238 249.88 65.1952 249.88 64.5962V64.3484H249.885Z" fill="#231F20"/>
<path d="M253.188 66.7781V59.2905C253.188 58.9445 253.262 58.6811 253.411 58.5055C253.56 58.33 253.759 58.2422 254.012 58.2422C254.266 58.2422 254.47 58.33 254.619 58.5055C254.773 58.6811 254.852 58.9445 254.852 59.2956V66.7832C254.852 67.1344 254.773 67.3926 254.619 67.5681C254.465 67.7437 254.261 67.8315 254.012 67.8315C253.764 67.8315 253.57 67.7437 253.421 67.563C253.272 67.3822 253.192 67.124 253.192 66.7884L253.188 66.7781Z" fill="#231F20"/>
<path d="M261.218 64.7408H257.968C257.968 65.1333 258.047 65.4792 258.197 65.7788C258.346 66.0783 258.539 66.3003 258.788 66.4552C259.031 66.605 259.305 66.6824 259.598 66.6824C259.797 66.6824 259.98 66.6566 260.144 66.6101C260.308 66.5637 260.467 66.4862 260.622 66.3829C260.776 66.2797 260.915 66.1712 261.049 66.0473C261.178 65.9285 261.347 65.7684 261.556 65.567C261.64 65.4896 261.759 65.4534 261.918 65.4534C262.087 65.4534 262.227 65.4999 262.331 65.598C262.435 65.6961 262.49 65.8304 262.49 66.0111C262.49 66.166 262.43 66.3468 262.316 66.5585C262.197 66.7702 262.023 66.9664 261.784 67.1627C261.546 67.3589 261.248 67.5138 260.89 67.6429C260.532 67.7668 260.12 67.8288 259.653 67.8288C258.584 67.8288 257.754 67.5138 257.163 66.8838C256.572 66.2538 256.273 65.3915 256.273 64.3071C256.273 63.7958 256.348 63.3208 256.492 62.887C256.636 62.4481 256.85 62.0763 257.133 61.7664C257.411 61.4514 257.759 61.2139 258.167 61.0487C258.579 60.8834 259.031 60.8008 259.528 60.8008C260.179 60.8008 260.736 60.9454 261.198 61.2294C261.66 61.5134 262.013 61.8852 262.241 62.3345C262.475 62.7837 262.589 63.2433 262.589 63.7132C262.589 64.1521 262.47 64.431 262.232 64.5601C261.993 64.684 261.655 64.7511 261.223 64.7511L261.218 64.7408ZM257.968 63.7597H260.979C260.94 63.171 260.785 62.7321 260.522 62.4326C260.254 62.1382 259.906 61.9936 259.474 61.9936C259.041 61.9936 258.718 62.1434 258.455 62.4377C258.187 62.7372 258.028 63.1762 257.973 63.7545L257.968 63.7597Z" fill="#231F20"/>
<path d="M265.492 61.7561V61.9627C265.785 61.5599 266.103 61.2655 266.451 61.0796C266.799 60.8937 267.196 60.8008 267.648 60.8008C268.101 60.8008 268.478 60.8989 268.821 61.0951C269.164 61.2913 269.422 61.5754 269.596 61.9368C269.706 62.1485 269.775 62.3758 269.81 62.6185C269.84 62.8663 269.86 63.1762 269.86 63.5531V66.7651C269.86 67.111 269.785 67.3744 269.631 67.55C269.477 67.7255 269.278 67.8133 269.035 67.8133C268.791 67.8133 268.588 67.7255 268.434 67.5448C268.28 67.3641 268.205 67.1059 268.205 66.7702V63.8888C268.205 63.3207 268.13 62.887 267.976 62.5823C267.822 62.2776 267.519 62.1331 267.067 62.1331C266.774 62.1331 266.501 62.2208 266.257 62.4067C266.014 62.5926 265.835 62.8457 265.72 63.1607C265.641 63.4189 265.601 63.8991 265.601 64.6014V66.7651C265.601 67.1162 265.522 67.3744 265.368 67.55C265.214 67.7255 265.01 67.8133 264.761 67.8133C264.513 67.8133 264.324 67.7255 264.17 67.5448C264.016 67.3641 263.941 67.1059 263.941 66.7702V61.7819C263.941 61.4514 264.011 61.2087 264.145 61.0435C264.284 60.8834 264.473 60.8008 264.712 60.8008C264.856 60.8008 264.99 60.8318 265.109 60.9041C265.228 60.9764 265.323 61.0848 265.392 61.2242C265.462 61.3688 265.502 61.5444 265.502 61.7509L265.492 61.7561Z" fill="#231F20"/>
<path d="M271.599 60.9654H271.783V59.9275C271.783 59.6486 271.788 59.4317 271.803 59.2717C271.818 59.1167 271.858 58.9773 271.922 58.8637C271.987 58.7449 272.081 58.652 272.201 58.5745C272.32 58.5022 272.459 58.4609 272.608 58.4609C272.822 58.4609 273.011 58.5436 273.18 58.7088C273.294 58.8224 273.363 58.9515 273.393 59.1116C273.423 59.2665 273.438 59.4937 273.438 59.7829V60.9603H274.044C274.278 60.9603 274.457 61.0171 274.581 61.1358C274.705 61.2494 274.77 61.3992 274.77 61.5799C274.77 61.8123 274.68 61.9724 274.506 62.0653C274.328 62.1583 274.079 62.2047 273.746 62.2047H273.438V65.3805C273.438 65.649 273.448 65.8556 273.468 66.0054C273.483 66.1499 273.532 66.2687 273.612 66.3565C273.691 66.4443 273.821 66.4908 274 66.4908C274.099 66.4908 274.228 66.4753 274.397 66.4391C274.566 66.403 274.695 66.3875 274.785 66.3875C274.919 66.3875 275.038 66.4391 275.147 66.5527C275.257 66.6663 275.306 66.8006 275.306 66.9658C275.306 67.2447 275.162 67.4564 274.869 67.6062C274.576 67.7559 274.159 67.8282 273.607 67.8282C273.09 67.8282 272.693 67.7404 272.429 67.5597C272.161 67.3789 271.987 67.1311 271.903 66.8057C271.818 66.4856 271.778 66.057 271.778 65.5251V62.2099H271.56C271.321 62.2099 271.137 62.1479 271.013 62.0343C270.889 61.9207 270.824 61.7658 270.824 61.5851C270.824 61.4043 270.889 61.2546 271.023 61.141C271.157 61.0222 271.346 60.9654 271.599 60.9654Z" fill="#231F20"/>
</svg>
