<svg width="251" height="147" viewBox="0 0 251 147" fill="none" xmlns="http://www.w3.org/2000/svg">
<path d="M120.425 114.502L120.34 110.27L126.517 134.741L126.441 138.887L120.425 114.502Z" fill="#FEC25E"/>
<path d="M137.167 91.3281V94.5022L126.441 138.726L126.518 134.741L137.167 91.3281Z" fill="#E29F2B"/>
<path d="M120.34 110.27L137.166 91.3281L126.517 134.741L120.34 110.27Z" fill="#F9B749"/>
<path d="M119.616 106.372L172.372 47.5156V48.403L118.797 108.65L119.616 106.372Z" fill="#C6862A"/>
<path d="M112.703 84.4155L112.865 81.8984L119.614 106.369L118.795 108.648L112.703 84.4155Z" fill="#FEC25E"/>
<path d="M112.871 81.9013L172.376 47.5156L119.62 106.372L112.871 81.9013Z" fill="#FBAB24"/>
<path d="M109.613 79.8663L121.32 73.1172V74.4141L109.613 81.0865V79.8663Z" fill="#E29F2B"/>
<path d="M77.8242 49.2963V48.2383L109.608 79.868V81.0881L77.8242 49.2963Z" fill="#FEC25E"/>
<path d="M109.608 79.868L77.8242 48.2383L121.314 73.1188L109.608 79.868Z" fill="#F1BE64"/>
<path d="M124.875 30.8633L142.963 41.307V62.2029L124.875 72.6466L106.777 62.2029V41.307L124.875 30.8633Z" fill="#2B5371"/>
<path d="M124.768 63.516C131.327 63.516 136.645 58.1984 136.645 51.6389C136.645 45.0793 131.327 39.7617 124.768 39.7617C118.208 39.7617 112.891 45.0793 112.891 51.6389C112.891 58.1984 118.208 63.516 124.768 63.516Z" fill="white"/>
<path fill-rule="evenodd" clip-rule="evenodd" d="M170.042 40.5103L123.677 11.5L79.4531 40.442L105.469 50.5188V40.2969L124.76 29.1621L144.044 40.2969V50.0922L170.042 40.5103Z" fill="#2B5371"/>
<path d="M123.586 8L170.011 37.2662V40.5171L123.671 11.4983L123.586 8Z" fill="#1F4968"/>
<path d="M123.591 8L79.4531 36.942V40.4403L123.677 11.4983L123.591 8Z" fill="#396181"/>
</svg>
